inDegrees=yes
name=ik_S40_A01_T01
DataType=double
version=3
OpenSimVersion=4.3-2021-08-27-4bc7ad9
endheader
time	pelvis_tilt	pelvis_list	pelvis_rotation	pelvis_tx	pelvis_ty	pelvis_tz	hip_flexion_r	hip_adduction_r	hip_rotation_r	knee_angle_r	knee_angle_r_beta	ankle_angle_r	subtalar_angle_r	mtp_angle_r	hip_flexion_l	hip_adduction_l	hip_rotation_l	knee_angle_l	knee_angle_l_beta	ankle_angle_l	subtalar_angle_l	mtp_angle_l	lumbar_extension	lumbar_bending	lumbar_rotation	arm_flex_r	arm_add_r	arm_rot_r	elbow_flex_r	pro_sup_r	wrist_flex_r	wrist_dev_r	arm_flex_l	arm_add_l	arm_rot_l	elbow_flex_l	pro_sup_l	wrist_flex_l	wrist_dev_l
18.1599999999997	-3.795339302109612	-4.888870266632727	36.23832008882749	0	0.9399999999999999	0	9.284264845253356	-6.271510707747846	-23.41006150147588	21.71550713923131	0.3790070983199211	0	0	0	11.34833438240928	-1.080618232117717	-6.117312271502547	12.16412277800415	0.2123039930930117	0	0	0	0	0	0	40.7396834739637	-40.7396834739637	4.913647148620351	83.77531013361821	85.08635312219857	0	0	40.7396834739637	-40.7396834739637	4.913647148620351	83.77531013361821	85.08635312218271	0	0
18.1799999999997	-3.502671316829969	-4.915829785681366	37.54963299465221	0	0.9399999999999999	0	9.532286365395391	-5.870317278807526	-22.86429434154794	21.70787622278734	0.3788739137030291	0	0	0	11.48139491321213	-1.260842323192257	-7.296471933168432	12.49743472305964	0.2181213839704563	0	0	0	0	0	0	40.7475633563684	-40.7475633563684	4.913919671690393	83.77917547653175	85.0860805991402	0	0	40.7475633563684	-40.7475633563684	4.913919671690393	83.77917547653175	85.08608059912439	0	0
18.1999999999997	-2.896270153483488	-4.932379210587026	40.40349968788743	0	0.9399999999999999	0	9.45173264009154	-5.522914165824941	-21.73414200215988	20.76325349727565	0.3623871369536875	0	0	0	11.27005732829733	-1.223158067584754	-5.734468353652605	12.57412985060316	0.2194599664663278	0	0	0	0	0	0	40.75886028861061	-40.75886028861061	4.914318497328571	83.7848322992201	85.08568177351917	0	0	40.75886028861061	-40.75886028861061	4.914318497328571	83.7848322992201	85.08568177350342	0	0
18.2199999999997	-2.374945910497294	-4.860908073058212	43.29169080387027	0	0.9399999999999999	0	8.74348420292862	-5.683026003280618	-24.60238694456776	20.76709105849475	0.3624541150322076	0	0	0	11.02757672017436	-1.097806196302839	-4.250020859247104	12.78984965286522	0.2232249872775519	0	0	0	0	0	0	40.76062765979317	-40.76062765979317	4.914390150324309	83.78584867334531	85.08561012052654	0	0	40.76062765979317	-40.76062765979317	4.914390150324309	83.78584867334531	85.08561012051081	0	0
18.2399999999997	-1.947126349937015	-4.801369047013071	46.14747170858775	0	0.9399999999999999	0	9.434674866197508	-5.119677248009877	-19.43342694936928	19.26529643573018	0.3362428541762197	0	0	0	10.83887862285288	-0.9699474038373138	-3.145003106782479	12.94167018194059	0.2258747553820369	0	0	0	0	0	0	40.77731805590581	-40.77731805590581	4.91498531107252	83.79429029365129	85.08501495980394	0	0	40.77731805590581	-40.77731805590581	4.91498531107252	83.79429029365129	85.08501495978835	0	0
18.2599999999997	-1.651968331707286	-4.796884731015987	48.89864179183621	0	0.9399999999999999	0	9.749046455941375	-4.88283090568554	-17.81081281273571	19.13711282236047	0.3340056280758149	0	0	0	10.82283183236465	-0.8734443132655891	-2.336208840890941	13.05810543429993	0.2279069339010978	0	0	0	0	0	0	40.78767240480664	-40.78767240480664	4.915348670885048	83.7994440606025	85.08465160000698	0	0	40.78767240480664	-40.78767240480664	4.915348670885048	83.7994440606025	85.08465159999147	0	0
18.2799999999997	-1.369092405329887	-4.854795148024798	51.69112651245847	0	0.9399999999999999	0	10.6337986858973	-4.441917226510772	-14.03520255397644	17.09243060932466	0.2983191913013759	0	0	0	10.84752959729392	-0.8298143971181048	-1.549423827651275	13.18423855549271	0.2301083721617289	0	0	0	0	0	0	40.80186111175577	-40.80186111175577	4.91584547759482	83.80649058109975	85.08415479331856	0	0	40.80186111175577	-40.80186111175577	4.91584547759482	83.80649058109975	85.08415479330314	0	0
18.2999999999997	-1.251784844550133	-4.904365897698207	52.99481267115662	0	0.9399999999999999	0	11.19890097986482	-4.061386791539149	-10.88008143462668	17.03306383934429	0.2972830456989443	0	0	0	10.96476324112095	-0.9213732696607877	-2.083634057248708	13.29329049146174	0.2320116875000625	0	0	0	0	0	0	40.80972347072832	-40.80972347072832	4.916119734679933	83.81038053277597	85.08388053624523	0	0	40.80972347072832	-40.80972347072832	4.916119734679933	83.81038053277597	85.08388053622984	0	0
